<svg version="1.0" xmlns="http://www.w3.org/2000/svg" width="700.000000pt" height="700.000000pt" viewBox="0 0 700.000000 700.000000" preserveAspectRatio="xMidYMid meet">
<metadata>
Created for Goulburn Radiology
</metadata>
<g transform="translate(0.000000,700.000000) scale(0.100000,-0.100000)" fill="#000000" stroke="none">
<path d="M2800 6800 c-800 -60 -1500 -350 -2050 -850 -550 -500 -900 -1150 -1000 -1850 -50 -350 -25 -700 75 -1050 200 -700 600 -1300 1150 -1750 500 -400 1100 -650 1750 -725 350 -40 700 -25 1050 50 700 150 1350 500 1850 1000 500 500 850 1150 1000 1850 75 350 75 700 0 1050 -150 700 -500 1350 -1000 1850 -500 500 -1150 850 -1850 1000 -300 65 -675 90 -975 75z"/>
<path d="M1400 5500 c-200 -800 0 -1600 600 -2200 500 -500 1200 -800 1900 -800 700 0 1400 300 1900 800 600 600 800 1400 600 2200 l-50 200 -2500 0 -450 0z"/>
<path d="M3200 4200 l0 -200 400 0 400 0 0 -400 0 -400 200 0 200 0 0 400 0 400 400 0 400 0 0 200 0 200 -400 0 -400 0 0 400 0 400 -200 0 -200 0 0 -400 0 -400 -400 0 -400 0 0 -200z"/>
</g>
</svg>